<svg width="125" height="20" viewBox="0 0 125 20" fill="none" xmlns="http://www.w3.org/2000/svg">
<path d="M124.08 8.18788H121.503V15.6241C121.503 17.1812 122.255 17.3691 124.08 17.2617V19.5704C123.517 19.7047 122.899 19.7852 122.148 19.7852C119.893 19.7852 118.658 18.7651 118.658 15.8657V8.18788H116.671V5.87915H118.658V1.55701H121.503V5.87915H124.08V8.18788Z" fill="#020617"/>
<path d="M113.778 3.57053C113 3.57053 112.194 3.03362 112.194 2.06718C112.194 1.10073 113 0.590668 113.778 0.590668C114.611 0.590668 115.389 1.10073 115.389 2.06718C115.389 3.03362 114.611 3.57053 113.778 3.57053ZM112.382 5.87926H115.201V19.5974H112.382V5.87926Z" fill="#020617"/>
<path d="M95.278 0.40274H98.4726V9.87925L107.171 0.40274H110.983L103.52 8.53697L111.439 19.5974H107.708L101.426 10.7652L98.4726 13.9329V19.5974H95.278V0.40274Z" fill="#020617"/>
<path d="M88.3783 5.50333C90.9286 5.50333 92.942 6.97984 92.942 10.1208V19.5973H90.0964V10.9261C90.0964 9.0738 89.3179 7.89259 87.385 7.89259C85.2105 7.89259 83.8145 9.20802 83.8145 11.2483V19.5973H80.9957V5.87917H83.8145V7.65098H83.8682C84.5931 6.57715 86.0159 5.50333 88.3783 5.50333Z" fill="#020617"/>
<path d="M77.2441 3.57053C76.4656 3.57053 75.6602 3.03362 75.6602 2.06718C75.6602 1.10073 76.4656 0.590668 77.2441 0.590668C78.0763 0.590668 78.8548 1.10073 78.8548 2.06718C78.8548 3.03362 78.0763 3.57053 77.2441 3.57053ZM75.8481 5.87926H78.6669V19.5974H75.8481V5.87926Z" fill="#020617"/>
<path d="M70.4143 9.47648C70.4143 8.48319 69.8237 7.73151 67.9445 7.73151C65.6895 7.73151 64.8573 8.4295 64.723 10.2013H61.9848C62.119 7.57044 63.8103 5.50333 67.9445 5.50333C70.9781 5.50333 73.2331 6.65769 73.2331 10.3087V16.8322C73.2331 17.7986 73.4479 18.3087 74.5485 18.2013V19.5436C73.9042 19.7852 73.4479 19.8389 72.911 19.8389C71.4076 19.8389 70.7096 19.302 70.4412 17.9597H70.3875C69.5284 19.1678 67.9714 20 65.8506 20C63.0586 20 61.3405 18.3892 61.3405 16.0805C61.3405 13.0738 63.5687 12.1342 67.0049 11.4631C69.1257 11.0604 70.4143 10.7919 70.4143 9.47648ZM66.468 17.7718C68.8036 17.7718 70.4143 16.6174 70.4143 14.3892V12.3221C69.9579 12.6443 68.8573 12.9664 67.5418 13.2349C65.2063 13.7449 64.1861 14.4161 64.1861 15.8121C64.1861 17.0738 64.9378 17.7718 66.468 17.7718Z" fill="#020617"/>
<path d="M55.4609 5.50341C58.0649 5.50341 60.0784 6.97992 60.0784 10.1209V19.5974H57.2327V10.9262C57.2327 9.07388 56.4542 7.89267 54.4945 7.89267C52.4274 7.89267 50.9508 9.20811 50.9508 11.2484V19.5974H48.132V0.40274H50.9508V7.65106H51.0045C51.7294 6.57724 53.1522 5.50341 55.4609 5.50341Z" fill="#020617"/>
<path d="M43.9879 10.8993C43.8805 9.50333 42.9946 7.81205 40.5785 7.81205C37.8134 7.81205 36.6322 10.1745 36.6322 12.7516C36.6322 15.3288 37.7865 17.6912 40.5785 17.6912C42.9946 17.6912 43.8805 16.0268 43.9879 14.4966H46.8067C46.5919 17.6644 44.149 20 40.5785 20C36.4711 20 33.8134 17.0469 33.8134 12.7516C33.8134 8.45635 36.4711 5.50333 40.5516 5.50333C44.1221 5.50333 46.4577 7.78521 46.8067 10.8993H43.9879Z" fill="#020617"/>
<path d="M27.9338 5.50333C30.4841 5.50333 32.4975 6.97984 32.4975 10.1208V19.5973H29.6519V10.9261C29.6519 9.0738 28.8734 7.89259 26.9405 7.89259C24.766 7.89259 23.37 9.20802 23.37 11.2483V19.5973H20.5512V5.87917H23.37V7.65098H23.4237C24.1485 6.57715 25.5713 5.50333 27.9338 5.50333Z" fill="#020617"/>
<path d="M9.42282 20C3.62416 20 0 15.7584 0 9.98658C0 4.21477 3.62416 0 9.42282 0C15.1946 0 18.8456 4.21477 18.8456 9.98658C18.8456 15.7584 15.1946 20 9.42282 20ZM9.42282 17.2617C13.8255 17.2617 15.651 13.8792 15.651 9.98658C15.651 6.1208 13.8255 2.73826 9.42282 2.73826C5.02013 2.73826 3.16779 6.1208 3.16779 9.98658C3.16779 13.8792 5.02013 17.2617 9.42282 17.2617Z" fill="#020617"/>
</svg>
