<svg width="27" height="25" viewBox="0 0 34 30" fill="none" xmlns="http://www.w3.org/2000/svg">
<path d="M6.25215 0H27.3603V30H24.2618V16.2581H24.2314C23.889 12.4601 20.6954 9.48387 16.8062 9.48387C12.9171 9.48387 9.72342 12.4601 9.38099 16.2581H9.35059V30H6.25215V0Z" fill="#6B7280"/>
<path d="M0.63623 4.25807L1.89497 8.51613H2.96006V25.7419C2.4253 25.7419 1.9918 26.1752 1.9918 26.7097V27.871H1.79815C1.26339 27.871 0.829883 28.3042 0.829883 28.8387V30H11.6744V28.8387C11.6744 28.3042 11.2409 27.871 10.7062 27.871H10.5125V26.7097C10.5125 26.1752 10.079 25.7419 9.54425 25.7419H8.38233V4.25807H0.63623Z" fill="#6B7280"/>
<path d="M24.4555 25.7419C23.9207 25.7419 23.4872 26.1752 23.4872 26.7097V27.871H23.2936C22.7588 27.871 22.3253 28.3042 22.3253 28.8387V30H33.1699V28.8387C33.1699 28.3042 32.7363 27.871 32.2016 27.871H32.0079V26.7097C32.0079 26.1752 31.5744 25.7419 31.0397 25.7419V8.51613H32.1048L33.3635 4.25807H25.6174V25.7419H24.4555Z" fill="#6B7280"/>
</svg>
