<svg width="401" height="59" viewBox="0 0 401 59" fill="none" xmlns="http://www.w3.org/2000/svg">
<path fillRule="evenodd" clipRule="evenodd" class="fill-gray-950 dark:fill-gray-50" d="M29.7422 58.62C11.0222 58.62 0.542181 46.62 0.542181 29.42C0.542181 12.38 11.3422 0.379996 30.1422 0.379996C48.7022 0.379996 59.2622 12.38 59.2622 29.58C59.2622 46.62 48.5422 58.62 29.7422 58.62ZM29.9822 46.22C41.1022 46.22 43.1022 43.98 43.1022 29.58C43.1022 15.18 41.1022 12.78 29.9822 12.78C18.8622 12.78 16.7022 15.18 16.7022 29.58C16.7022 43.98 18.8622 46.22 29.9822 46.22ZM75.9072 57.5H62.1472V16.3H74.8672L75.1072 19.9H77.7472C79.9872 17.42 84.0672 15.18 89.7472 15.18C98.2272 15.18 103.187 19.9 103.187 29.66V57.5H89.2672V32.7C89.2672 26.86 88.1472 25.82 82.7872 25.82C77.1072 25.82 75.9072 27.02 75.9072 32.86V57.5ZM128.01 58.62C115.13 58.62 106.25 51.42 106.25 36.94C106.25 22.54 115.29 15.18 128.09 15.18C138.73 15.18 147.77 20.22 148.33 31.58H134.57C134.17 26.7 132.73 25.34 127.85 25.34C122.01 25.34 120.57 26.78 120.57 36.86C120.57 47.02 122.01 48.46 127.85 48.46C132.73 48.46 134.17 47.1 134.57 42.22H148.33C147.77 53.58 138.73 58.62 128.01 58.62ZM164.82 57.5H151.06V1.5H164.82V19.9H167.38C169.7 17.18 173.46 15.18 178.66 15.18C187.14 15.18 192.1 19.9 192.1 29.66V57.5H178.18V32.7C178.18 26.86 177.06 25.82 171.7 25.82C166.02 25.82 164.82 27.02 164.82 32.86V57.5ZM208.682 58.3C200.762 58.3 195.002 53.42 195.002 45.26C195.002 38.78 198.682 33.74 209.242 32.86L222.122 31.82V28.86C222.122 25.26 220.442 24.46 216.122 24.46C210.922 24.46 209.722 25.82 209.562 29.58H195.962C195.882 20.86 204.122 15.18 216.682 15.18C225.962 15.18 235.562 18.46 235.562 30.62V57.5H222.842L222.602 53.9H219.962C218.122 56.62 213.402 58.3 208.682 58.3ZM215.002 49.1C220.842 49.1 222.122 47.42 222.122 42.78V39.82L213.162 40.7C209.482 41.02 208.682 41.98 208.682 44.86C208.682 48.14 210.122 49.1 215.002 49.1ZM254.521 12.06H240.281V1.5H254.521V12.06ZM254.361 57.5H240.441V16.3H254.361V57.5ZM273.11 57.5H259.35V16.3H272.07L272.31 19.9H274.95C277.19 17.42 281.27 15.18 286.95 15.18C295.43 15.18 300.39 19.9 300.39 29.66V57.5H286.47V32.7C286.47 26.86 285.35 25.82 279.99 25.82C274.31 25.82 273.11 27.02 273.11 32.86V57.5ZM320.266 57.5H305.626V1.5H320.266V21.66H323.466L338.506 1.5H356.346L344.426 17.18C340.346 22.7 337.226 26.14 333.306 27.26V30.7C337.466 31.74 340.506 34.94 344.906 40.78L357.786 57.5H339.706L323.466 36.46H320.266V57.5ZM371.562 12.06H357.322V1.5H371.562V12.06ZM371.402 57.5H357.482V16.3H371.402V57.5ZM400.631 57.5H393.591C383.991 57.5 379.191 52.46 379.191 44.54V25.34H373.511V16.3H379.191V5.1H393.111V16.3H400.631V25.34H393.111V43.26C393.111 45.74 393.591 46.06 396.311 46.06H400.631V57.5Z" />
</svg>