<svg width="31" height="30" viewBox="0 0 31 30" fill="none" xmlns="http://www.w3.org/2000/svg">
<path d="M24.25 15.625C24.25 22.1834 18.9334 27.5 12.375 27.5C5.81662 27.5 0.5 22.1834 0.5 15.625C0.5 9.06662 5.81662 3.75 12.375 3.75C18.9334 3.75 24.25 9.06662 24.25 15.625ZM12.375 9.0625L10.6368 13.4568L6.125 13.8371L9.5625 16.9332L8.51229 21.5625L12.375 19.0818L16.2377 21.5625L15.1875 16.9332L18.625 13.8371L14.1132 13.4568L12.375 9.0625Z" fill="#6B7280"/>
<path d="M30.5 15.625C30.5 19.6212 28.526 23.1564 25.5 25.3086V21.9988C27.0515 20.3262 28 18.0864 28 15.625C28 13.1636 27.0515 10.9238 25.5 9.25117V5.94138C28.526 8.09364 30.5 11.6288 30.5 15.625Z" fill="#6B7280"/>
</svg>
